<svg xmlns="http://www.w3.org/2000/svg" height="511pt" version="1.1" viewBox="-1 0 511 511.99957" width="511pt">
<g id="surface1">
<path d="M 120.582031 98.460938 C 150.605469 84.054688 186.738281 83 217.546875 95.632812 C 222.210938 97.542969 227.152344 100.164062 228.96875 104.867188 C 231.457031 111.316406 226.957031 118.210938 222.429688 123.429688 C 188.332031 162.738281 137.488281 187.019531 85.484375 188.828125 C 79.105469 189.050781 72.457031 188.890625 66.757812 186.027344 C 50.128906 177.675781 61.996094 158.507812 68.539062 147.121094 C 76.246094 133.707031 86.53125 121.777344 98.667969 112.179688 C 105.441406 106.824219 112.796875 102.199219 120.582031 98.460938 Z M 120.582031 98.460938 " style=" stroke:none;fill-rule:nonzero;fill:rgb(84.705882%,87.058824%,92.54902%);fill-opacity:1;" />
<path d="M 315.355469 114.289062 C 320.039062 110.816406 327.960938 109.746094 333.378906 108.628906 C 346.09375 106.007812 358.214844 106.828125 370.828125 109.285156 C 390.296875 113.078125 411.996094 119.410156 427.898438 131.6875 C 438.625 139.964844 447.433594 152.984375 454.8125 164.242188 C 459.851562 171.925781 464.195312 181.355469 465.253906 190.550781 C 465.585938 193.414062 466.417969 195.757812 464.355469 197.578125 C 460.898438 200.625 451.941406 201.480469 447.699219 202.273438 C 429.828125 205.605469 413.738281 201.175781 396.378906 197.5 C 380.488281 194.132812 366.320312 189.714844 351.707031 182.691406 C 339.523438 176.832031 327.59375 167.496094 317.488281 158.480469 C 311.761719 153.371094 307.167969 147.203125 301.414062 142.214844 C 298.09375 139.339844 295.128906 136.566406 292.800781 132.832031 C 289.816406 128.050781 289.417969 124.621094 294.5625 121.289062 C 302.140625 116.382812 310.671875 113.78125 315.355469 114.289062 Z M 315.355469 114.289062 " style=" stroke:none;fill-rule:nonzero;fill:rgb(84.705882%,87.058824%,92.54902%);fill-opacity:1;" />
<path d="M 62.617188 178.898438 C 88.117188 151.863281 118.28125 128.417969 154.234375 117.578125 C 175.183594 111.261719 197.058594 110.667969 218.742188 109.925781 C 220.851562 109.855469 229.460938 108.339844 230.527344 111.097656 C 231.378906 113.289062 221.902344 122.816406 220.722656 124.363281 C 200.027344 151.496094 169.609375 168.699219 137.925781 179.617188 C 121.882812 185.140625 104.523438 187.355469 87.597656 187.453125 C 81.097656 187.492188 74.878906 186.613281 68.425781 186.09375 C 65.121094 185.832031 61.945312 185.609375 58.898438 184.207031 C 60.875 181.046875 63.835938 178.414062 62.617188 178.898438 Z M 62.617188 178.898438 " style=" stroke:none;fill-rule:nonzero;fill:rgb(57.647059%,60.784314%,66.666667%);fill-opacity:1;" />
<path d="M 296.035156 129.171875 C 301.246094 127.046875 308.371094 127.910156 313.808594 127.894531 C 331.144531 127.84375 347.085938 132.886719 363.785156 135.898438 C 380.152344 138.847656 395.753906 146.78125 409.355469 156.148438 C 417.667969 161.871094 425.726562 167.761719 433.875 173.75 C 438.21875 176.941406 443.082031 179.347656 447.476562 182.472656 C 451.984375 185.679688 453.910156 189.871094 457.695312 193.503906 C 459.269531 195.011719 462.453125 196.820312 462.761719 198.941406 C 458.300781 199.929688 453.503906 200.988281 448.9375 201.488281 C 436.148438 202.878906 423.46875 201.640625 410.851562 199.308594 C 400.933594 197.472656 391.128906 194.652344 381.378906 192.074219 C 372.054688 189.609375 362.253906 187.308594 353.628906 182.890625 C 339.117188 175.457031 325.472656 168.746094 314.882812 155.960938 C 309.871094 149.917969 304.246094 144.648438 299.902344 138.085938 C 297.625 134.640625 295.207031 130.710938 296.035156 129.171875 Z M 296.035156 129.171875 " style=" stroke:none;fill-rule:nonzero;fill:rgb(57.647059%,60.784314%,66.666667%);fill-opacity:1;" />
<path d="M 25.242188 60.445312 C 13.136719 66.769531 13.339844 82.621094 20.15625 92.796875 C 27.097656 103.164062 43.753906 103.140625 52.972656 96.089844 C 60.457031 90.367188 62.882812 77.710938 59.476562 69.183594 C 55.421875 59.019531 38.945312 55.144531 25.242188 60.445312 Z M 25.242188 60.445312 " style=" stroke:none;fill-rule:nonzero;fill:rgb(57.647059%,60.784314%,66.666667%);fill-opacity:1;" />
<path d="M 414.171875 25.925781 C 401.074219 24.996094 391.339844 40.160156 392.058594 51.742188 C 392.796875 63.664062 405.808594 69.28125 416.523438 68.6875 C 428.453125 68.023438 437.402344 60.234375 436.59375 48.023438 C 435.722656 34.890625 424.609375 27.414062 414.171875 25.925781 Z M 414.171875 25.925781 " style=" stroke:none;fill-rule:nonzero;fill:rgb(57.647059%,60.784314%,66.666667%);fill-opacity:1;" />
<path d="M 446.476562 21.804688 C 460.296875 17.890625 474.089844 8 488.753906 7.835938 C 496.285156 7.753906 504.148438 13.429688 506.175781 20.796875 C 507.300781 24.894531 505.890625 27.722656 502.609375 30.113281 C 496.046875 34.902344 488.023438 38.285156 480.765625 41.847656 C 466.617188 48.796875 450.628906 50.871094 436.386719 57.253906 C 437.050781 53.296875 436.867188 48.714844 435.84375 44.753906 C 434.371094 39.058594 430.464844 35.988281 428.109375 31.0625 C 436.558594 27.644531 443.859375 21.605469 452.492188 18.324219 " style=" stroke:none;fill-rule:nonzero;fill:rgb(84.705882%,87.058824%,92.54902%);fill-opacity:1;" />
<path d="M 396.753906 68.996094 C 394.5625 72.890625 394.746094 79.40625 394.066406 83.726562 C 392.878906 91.28125 392.640625 100.5625 389.492188 107.582031 C 393.828125 109.335938 397.207031 113.429688 401.382812 115.6875 C 405.511719 117.917969 409.789062 120.128906 413.78125 122.507812 C 415.730469 112.941406 414.550781 102.90625 416.203125 93.183594 C 417.386719 86.238281 419.328125 78.492188 419.832031 71.542969 C 412.945312 73.410156 401.660156 72.371094 396.753906 68.996094 Z M 396.753906 68.996094 " style=" stroke:none;fill-rule:nonzero;fill:rgb(84.705882%,87.058824%,92.54902%);fill-opacity:1;" />
<path d="M 42.03125 54.429688 C 44.78125 49.570312 49.253906 45.304688 52.878906 41.09375 C 60.375 32.375 68.785156 24.097656 77.1875 16.246094 C 82.667969 11.121094 98.402344 -1.082031 104.0625 10.597656 C 105.371094 13.292969 107.316406 18.078125 106.609375 21.007812 C 105.230469 26.726562 98.664062 31.492188 94.695312 35.238281 C 82.730469 46.535156 70.328125 57.621094 58.546875 68.992188 C 58.625 59.921875 46.734375 55.78125 42.03125 54.429688 Z M 42.03125 54.429688 " style=" stroke:none;fill-rule:nonzero;fill:rgb(84.705882%,87.058824%,92.54902%);fill-opacity:1;" />
<path d="M 62.617188 79.449219 C 62.023438 83.699219 59.238281 88.285156 56.90625 91.789062 C 54.800781 94.957031 51.679688 97.347656 49.5 100.351562 C 48.683594 101.476562 48.097656 101.0625 47.769531 102.207031 C 55.347656 102.539062 62.894531 106.042969 70.230469 107.773438 C 77.96875 109.59375 85.363281 111.953125 92.882812 114.464844 C 96.179688 115.566406 97.101562 116.519531 99.890625 114.785156 C 104.949219 111.640625 108.566406 106.152344 113.667969 102.84375 C 117.800781 100.167969 122.535156 98.714844 126.726562 96.191406 C 124.769531 95.363281 122.609375 93.777344 120.429688 92.917969 C 113.320312 90.125 105.632812 89.675781 98.25 87.960938 C 91.476562 86.386719 84.621094 85.320312 77.890625 83.554688 C 73.351562 82.367188 67.863281 79.671875 62.617188 79.449219 Z M 62.617188 79.449219 " style=" stroke:none;fill-rule:nonzero;fill:rgb(84.705882%,87.058824%,92.54902%);fill-opacity:1;" />
<path d="M 122.882812 134.40625 C 123.527344 135.410156 125.09375 135.839844 126.164062 136.226562 C 129.289062 137.351562 132.925781 138.265625 136.25 138.296875 C 139.574219 138.332031 143.109375 137.988281 146.183594 136.640625 C 149.375 135.246094 152.535156 132.832031 155.003906 130.378906 C 157.289062 128.105469 158.332031 125.679688 159.421875 122.710938 C 159.964844 121.234375 161.6875 118.328125 159.046875 118.402344 C 156.285156 118.476562 153.457031 119.628906 150.816406 120.367188 C 146.976562 121.4375 143.234375 122.722656 139.558594 124.273438 C 133.394531 126.871094 127.421875 129.746094 122.882812 134.40625 Z M 122.882812 134.40625 " style=" stroke:none;fill-rule:nonzero;fill:rgb(100%,100%,100%);fill-opacity:1;" />
<path d="M 153.898438 141.667969 C 152.660156 141.199219 150.523438 142.078125 149.375 142.417969 C 146.433594 143.285156 142.882812 145.015625 140.550781 147.054688 C 138.921875 148.480469 137.316406 150.929688 137.9375 153.222656 C 138.535156 155.433594 141.832031 155.421875 143.675781 155.503906 C 149.589844 155.765625 155.84375 154.109375 159.867188 149.648438 C 161.273438 148.09375 162.0625 146.804688 161.121094 144.738281 C 160.03125 142.335938 157.566406 140.75 153.898438 141.667969 Z M 153.898438 141.667969 " style=" stroke:none;fill-rule:nonzero;fill:rgb(100%,100%,100%);fill-opacity:1;" />
<path d="M 134.070312 178.183594 C 133.953125 176.363281 135.453125 174.121094 136.28125 172.628906 C 138.546875 168.558594 141.566406 164.59375 145.550781 162.109375 C 149.136719 159.867188 153.539062 158.996094 157.714844 158.6875 C 161.796875 158.386719 165.703125 158.238281 169.691406 159.253906 C 171.171875 159.632812 175.242188 160.429688 175.378906 162.5625 C 175.445312 163.609375 174.023438 164.273438 173.246094 164.742188 C 170.789062 166.230469 167.988281 167.253906 165.351562 168.367188 C 154.539062 172.921875 143.695312 179.417969 131.617188 179.363281 " style=" stroke:none;fill-rule:nonzero;fill:rgb(100%,100%,100%);fill-opacity:1;" />
<path d="M 126.316406 149.128906 C 125.238281 147.941406 123.496094 147.726562 121.988281 147.652344 C 117.949219 147.449219 114.210938 148.429688 110.394531 149.667969 C 104.566406 151.550781 99.03125 154.605469 94.71875 159.015625 C 92.773438 161.003906 90.964844 163.417969 89.476562 165.765625 C 88.238281 167.714844 88.296875 169.632812 88.527344 171.800781 C 88.699219 173.417969 88.695312 175.113281 89.796875 176.433594 C 91.195312 178.101562 93.550781 178.550781 95.589844 178.71875 C 101.914062 179.230469 108.707031 177.460938 114.550781 175.175781 C 120.082031 173.011719 125.261719 170.328125 128.671875 165.328125 C 130.378906 162.824219 132.300781 159.8125 132.09375 156.648438 C 131.882812 153.34375 128.945312 148.652344 126.316406 149.128906 Z M 126.316406 149.128906 " style=" stroke:none;fill-rule:nonzero;fill:rgb(100%,100%,100%);fill-opacity:1;" />
<path d="M 180.402344 125.082031 C 182.726562 122.140625 187.019531 120.546875 190.484375 119.570312 C 194.707031 118.378906 199.464844 117.5625 203.445312 119.9375 C 207.257812 122.214844 206.65625 125.957031 205.28125 129.664062 C 203.316406 134.960938 197.097656 137.929688 192.402344 140.351562 C 188.058594 142.59375 183.441406 144.429688 178.460938 144.117188 C 176.429688 143.988281 174.355469 143.699219 172.339844 143.441406 C 170.742188 143.238281 168.8125 143.160156 167.578125 142.003906 C 164.578125 139.195312 168.199219 134.007812 170.105469 131.664062 C 173.808594 127.121094 178.746094 124.5625 184.035156 122.332031 " style=" stroke:none;fill-rule:nonzero;fill:rgb(100%,100%,100%);fill-opacity:1;" />
<path d="M 352.964844 141.867188 C 349.035156 139.375 343.8125 138.621094 339.34375 137.710938 C 333.492188 136.523438 325.554688 136.167969 321.101562 140.964844 C 317.617188 144.714844 319.902344 150.898438 323.144531 154.011719 C 327.339844 158.042969 333.214844 160.421875 338.433594 162.804688 C 343.535156 165.136719 348.957031 166.121094 354.542969 165.820312 C 359.035156 165.582031 362.644531 164.683594 364.636719 160.402344 C 368.191406 152.765625 361.039062 143.875 352.964844 141.867188 Z M 352.964844 141.867188 " style=" stroke:none;fill-rule:nonzero;fill:rgb(100%,100%,100%);fill-opacity:1;" />
<path d="M 374.558594 141.277344 C 374.988281 142.203125 375.046875 143.816406 375.472656 144.9375 C 376.710938 148.210938 379.382812 151.375 382.214844 153.433594 C 384.539062 155.117188 386.9375 156.800781 389.730469 157.582031 C 392.648438 158.394531 395.789062 159.183594 398.824219 159.328125 C 402.058594 159.480469 405.246094 158.996094 408.144531 157.527344 C 408.648438 157.269531 410.777344 156.5 410.910156 155.914062 C 411.039062 155.347656 410.261719 154.871094 409.835938 154.554688 C 407.882812 153.089844 405.464844 152.183594 403.339844 151.011719 C 400.4375 149.414062 397.578125 147.726562 394.621094 146.226562 C 387.960938 142.847656 380.953125 140.167969 374.558594 141.277344 Z M 374.558594 141.277344 " style=" stroke:none;fill-rule:nonzero;fill:rgb(100%,100%,100%);fill-opacity:1;" />
<path d="M 385.554688 164.34375 C 383.789062 163.542969 382.199219 162.476562 380.304688 161.980469 C 377.679688 161.292969 373.421875 160.640625 371.175781 162.632812 C 369.707031 163.929688 370.109375 166.570312 370.972656 168.125 C 372.113281 170.179688 374.34375 171.910156 376.320312 173.109375 C 378.324219 174.324219 380.554688 175.757812 382.890625 176.171875 C 384.898438 176.527344 388.683594 176.472656 390.585938 175.5625 C 392.398438 174.691406 392.933594 172.792969 392.652344 170.9375 C 392.171875 167.78125 389.5 165.527344 385.554688 164.34375 Z M 385.554688 164.34375 " style=" stroke:none;fill-rule:nonzero;fill:rgb(100%,100%,100%);fill-opacity:1;" />
<path d="M 367.785156 175.140625 C 366.222656 173.484375 362.804688 173.789062 360.851562 173.921875 C 357.738281 174.128906 354.589844 174.964844 351.734375 176.222656 C 350.429688 176.800781 348.652344 177.414062 349.035156 179.097656 C 349.410156 180.746094 351.964844 182.542969 353.210938 183.484375 C 356.15625 185.707031 359.515625 187.164062 362.828125 188.742188 C 366.046875 190.273438 369.203125 191.386719 372.550781 192.585938 C 375.355469 193.589844 378 194.96875 380.882812 195.761719 C 383.035156 196.351562 385.222656 196.960938 387.449219 197.195312 C 388.160156 197.269531 390.589844 197.722656 391.21875 197.144531 C 392.847656 195.652344 388.449219 190.613281 387.628906 189.496094 C 385.402344 186.476562 382.601562 183.703125 379.503906 181.59375 C 377.640625 180.324219 375.792969 178.9375 373.820312 177.84375 C 371.511719 176.570312 368.953125 175.980469 367.785156 175.140625 Z M 367.785156 175.140625 " style=" stroke:none;fill-rule:nonzero;fill:rgb(100%,100%,100%);fill-opacity:1;" />
<path d="M 425.996094 176.222656 C 422.222656 174.035156 417.871094 172.425781 413.601562 171.574219 C 409.105469 170.675781 400.851562 169.800781 398.542969 175.097656 C 396.730469 179.253906 400.382812 183.464844 403.523438 185.75 C 405.554688 187.226562 407.660156 188.5625 409.910156 189.679688 C 412 190.71875 413.984375 192.085938 416.148438 192.953125 C 420.371094 194.640625 424.957031 195.332031 429.476562 195.546875 C 432.527344 195.691406 437.367188 195.410156 439.199219 192.480469 C 440.582031 190.261719 439.734375 186.257812 438.300781 184.265625 C 436.789062 182.164062 434.15625 181.011719 431.984375 179.742188 C 429.671875 178.386719 427.378906 177.066406 425.996094 176.222656 Z M 425.996094 176.222656 " style=" stroke:none;fill-rule:nonzero;fill:rgb(100%,100%,100%);fill-opacity:1;" />
<path d="M 15.15625 324.292969 C 8.730469 314.003906 16.4375 304.332031 27.035156 303.382812 C 40.164062 302.207031 60.746094 299.453125 71.582031 306.921875 C 74.824219 309.15625 73.570312 309.382812 77.304688 308.328125 C 83.414062 306.597656 88.234375 301.796875 94.78125 300.789062 C 104.53125 299.292969 114.789062 300.953125 124.613281 300.933594 C 139.253906 300.90625 153.859375 299.898438 168.480469 299.917969 C 178.175781 299.933594 191.972656 298.316406 201.226562 301.90625 C 204.167969 303.046875 207.027344 306.589844 209.917969 306.808594 C 211.507812 306.929688 214.371094 304.972656 215.707031 304.535156 C 221.71875 302.5625 228.074219 301.597656 234.34375 300.914062 C 244.164062 299.835938 254.753906 298.445312 264.632812 299.519531 C 271.75 300.292969 277.949219 304.375 284.972656 305.308594 C 291.945312 306.234375 299.898438 302.128906 306.820312 300.550781 C 335.367188 294.035156 366.6875 294.40625 395.816406 295.578125 C 412.5625 296.253906 435.199219 292.554688 450.488281 301.023438 C 458.410156 305.410156 469.191406 315.683594 464.808594 325.707031 C 452.007812 320.734375 433.5 323.304688 420.117188 323.289062 C 403.019531 323.269531 384.898438 325.691406 368.109375 322.945312 C 351.539062 320.238281 332 322.625 315.273438 323.820312 C 297.242188 325.109375 279.105469 325.058594 261.039062 325.671875 C 232.097656 326.652344 203.171875 323.75 174.269531 325.574219 C 142.085938 327.605469 110.6875 326.011719 78.535156 325.332031 C 64.714844 325.039062 51.148438 324.554688 37.378906 325.804688 C 34.667969 326.046875 15.144531 324.804688 15.15625 324.292969 Z M 15.15625 324.292969 " style=" stroke:none;fill-rule:nonzero;fill:rgb(69.803922%,91.764706%,97.647059%);fill-opacity:1;" />
<path d="M 15.15625 324.292969 L 331.722656 326.28125 L 464.808594 325.707031 L 483.796875 328.269531 L 490.257812 339.203125 L 485.285156 352.125 L 461.433594 355.601562 L 239.285156 355.601562 L 72.804688 358.085938 L 23.105469 357.09375 L 6.707031 345.664062 L 3.722656 332.246094 Z M 15.15625 324.292969 " style=" stroke:none;fill-rule:nonzero;fill:rgb(84.705882%,87.058824%,92.54902%);fill-opacity:1;" />
<path d="M 155.273438 357.734375 C 155.03125 367.023438 151.921875 376.046875 153.730469 385.378906 C 156.140625 397.804688 163.234375 400.207031 174.484375 403.265625 C 203.441406 411.132812 235.925781 410.722656 265.632812 408.300781 C 278.984375 407.214844 292.296875 405.300781 305.558594 403.476562 C 312.707031 402.492188 321.605469 402.394531 327.84375 398.285156 C 334.015625 394.214844 337.757812 381.585938 338.527344 374.621094 C 339.253906 368.035156 340.210938 360.574219 340.027344 353.96875 C 327.605469 353.769531 314.863281 355.117188 302.453125 355.84375 C 279.878906 357.167969 257.242188 357.34375 234.660156 356.414062 C 208.125 355.324219 181.386719 354.328125 155.273438 357.734375 Z M 155.273438 357.734375 " style=" stroke:none;fill-rule:nonzero;fill:rgb(74.901961%,78.039216%,84.705882%);fill-opacity:1;" />
<path d="M 219.902344 467.714844 C 207.121094 467.714844 194.242188 467.199219 181.488281 468.167969 C 169.664062 469.0625 154.644531 478.09375 160.230469 491.984375 C 164.816406 503.394531 180.660156 502.140625 190.835938 503.378906 C 211.671875 505.921875 232.851562 508.285156 253.839844 508.53125 C 269.449219 508.710938 285.113281 507.589844 300.710938 506.644531 C 308.214844 506.191406 316.800781 507.421875 324.140625 505.628906 C 330.390625 504.101562 333.132812 497.929688 333.296875 491.910156 C 333.550781 482.40625 325.488281 477.027344 316.90625 474.632812 C 298.238281 469.417969 278.828125 470.625 259.761719 469.085938 C 251.738281 468.4375 243.632812 468.070312 235.582031 468.089844 C 232.027344 468.097656 228.40625 467.839844 224.863281 468.109375 C 221.75 468.34375 218.472656 469.546875 219.902344 467.714844 Z M 219.902344 467.714844 " style=" stroke:none;fill-rule:nonzero;fill:rgb(74.901961%,78.039216%,84.705882%);fill-opacity:1;" />
<path d="M 216.878906 409.511719 C 216.578125 421.847656 217.363281 434.191406 216.605469 446.554688 C 216.394531 450.019531 213.144531 465.335938 215.328125 467.742188 C 216.421875 468.949219 223.996094 468.441406 225.476562 468.535156 C 233.230469 469.027344 240.882812 470.183594 248.671875 470.371094 C 257.023438 470.574219 268.371094 472.765625 276.609375 470.351562 C 279.902344 469.386719 278.597656 470.761719 279.613281 467.882812 C 280.328125 465.859375 279.394531 462.609375 279.316406 460.550781 C 279.128906 455.691406 279.664062 450.886719 279.65625 446.03125 C 279.640625 434.441406 278.828125 422.777344 277.644531 411.316406 C 276.8125 403.296875 268.257812 407.210938 261.820312 407.558594 C 253.171875 408.027344 244.527344 407.25 235.875 407.710938 C 230.433594 407.996094 220.851562 410.46875 216.878906 409.511719 Z M 216.878906 409.511719 " style=" stroke:none;fill-rule:nonzero;fill:rgb(57.647059%,60.784314%,66.666667%);fill-opacity:1;" />
<path d="M 303.808594 370.207031 C 297.242188 372.921875 291.273438 379.898438 295.539062 387.21875 C 298.480469 392.273438 305.921875 394.109375 311.175781 392.347656 C 327.300781 386.9375 313.765625 362.414062 303.808594 370.207031 Z M 303.808594 370.207031 " style=" stroke:none;fill-rule:nonzero;fill:rgb(57.647059%,60.784314%,66.666667%);fill-opacity:1;" />
<path d="M 183.242188 370.207031 C 167.550781 375.859375 178.667969 397.871094 192.621094 392.710938 C 207.238281 387.304688 194.214844 362.195312 183.242188 370.207031 Z M 183.242188 370.207031 " style=" stroke:none;fill-rule:nonzero;fill:rgb(57.647059%,60.784314%,66.666667%);fill-opacity:1;" />
<path d="M 480.941406 323.527344 C 475.824219 321.113281 470.34375 320.570312 465.167969 320.457031 C 466.632812 311.136719 460.296875 302.109375 452.84375 297.878906 C 445.035156 293.445312 436.125 292.789062 426.921875 292.464844 C 379.660156 290.8125 331.957031 293.398438 285.152344 300.15625 C 284.605469 300.238281 284.101562 300.421875 283.652344 300.691406 C 278.546875 298.398438 273.019531 297.519531 267.710938 296.945312 C 247.359375 294.734375 226.992188 296.238281 207.183594 301.414062 C 206.78125 301.515625 206.425781 301.695312 206.089844 301.902344 C 205.445312 301.539062 204.773438 301.195312 204.070312 300.871094 C 196.085938 297.1875 187.273438 297.148438 179.496094 297.109375 L 99.808594 296.738281 C 95.328125 296.71875 90.242188 296.695312 85.359375 298.195312 C 81.21875 299.46875 77.777344 301.722656 75.414062 304.628906 C 74.554688 303.796875 73.636719 303.039062 72.671875 302.398438 C 66.066406 298.015625 57.964844 297.382812 50.914062 297.339844 C 43.464844 297.292969 35.9375 297.777344 28.554688 298.777344 C 24.488281 299.328125 19.832031 300.164062 16.019531 303.113281 C 10.347656 307.503906 8.585938 315.835938 11.53125 322.242188 C 10.191406 322.589844 8.902344 323.070312 7.695312 323.734375 C 3.140625 326.234375 0.585938 330.484375 0.503906 335.695312 C 0.363281 344.277344 6.8125 353.453125 12.867188 357.039062 C 21.058594 361.886719 30.726562 362.4375 39.125 362.4375 C 40.398438 362.4375 41.644531 362.425781 42.851562 362.410156 L 149.9375 361.316406 C 148.996094 367.796875 148.257812 374.453125 149.042969 381.257812 C 150.140625 390.699219 154.175781 398.5625 160.414062 403.390625 C 167.425781 408.820312 176.40625 409.9375 185.003906 410.617188 C 194.289062 411.351562 203.601562 411.882812 212.929688 412.226562 L 211.578125 464.230469 C 207.488281 464.035156 203.402344 463.847656 199.328125 463.667969 C 190.492188 463.285156 179.492188 462.804688 170.054688 467.914062 C 164.382812 470.984375 159.789062 476.695312 158.0625 482.816406 C 156.675781 487.742188 157.207031 492.679688 159.554688 496.730469 C 164.582031 505.402344 175.160156 507.328125 184.84375 508.070312 C 218.914062 510.683594 253.40625 512 287.699219 512 C 295.625 512 303.546875 511.929688 311.445312 511.789062 C 333.632812 511.390625 338.648438 501.441406 338.949219 493.164062 C 339.3125 483.257812 333.148438 474.566406 323.960938 472.03125 C 316.699219 470.023438 308.734375 469.785156 301.03125 469.554688 C 297.78125 469.457031 294.714844 469.367188 291.785156 469.148438 C 288.484375 468.898438 285.175781 468.660156 281.863281 468.421875 L 282.800781 411.164062 C 290.28125 410.664062 297.75 410.046875 305.195312 409.292969 C 315.289062 408.273438 326.707031 406.535156 334.449219 398.773438 C 344.679688 388.523438 344.148438 373.144531 342.652344 359.347656 L 464.292969 358.105469 C 480.367188 357.9375 490.289062 352.609375 492.238281 343.097656 C 493.984375 334.570312 487.875 326.796875 480.941406 323.527344 Z M 426.640625 300.523438 C 435.113281 300.820312 442.636719 301.355469 448.863281 304.890625 C 454.257812 307.953125 458.65625 314.550781 456.90625 320.441406 L 297.820312 320.980469 C 298.066406 316.152344 296.175781 311.238281 292.703125 307.25 C 336.980469 301.230469 382.003906 298.960938 426.640625 300.523438 Z M 266.84375 304.960938 C 272.433594 305.566406 278.25 306.523438 282.890625 309.386719 C 286.621094 311.691406 290.191406 316.144531 289.761719 320.902344 C 289.757812 320.9375 289.765625 320.96875 289.761719 321.003906 L 218.261719 321.246094 C 218.300781 317.089844 216.839844 312.324219 213.523438 308.160156 C 231.023438 304.097656 248.9375 303.015625 266.84375 304.960938 Z M 80.449219 311.8125 C 81.441406 309.207031 84.164062 307 87.730469 305.902344 C 91.4375 304.765625 95.671875 304.785156 99.773438 304.800781 L 179.464844 305.171875 C 186.417969 305.203125 194.300781 305.242188 200.691406 308.195312 C 205.621094 310.46875 210.421875 315.71875 210.21875 321.273438 L 81.203125 321.710938 C 81.960938 318.460938 81.554688 315.101562 80.347656 312.015625 C 80.378906 311.945312 80.421875 311.882812 80.449219 311.8125 Z M 20.953125 309.488281 C 23.1875 307.761719 26.46875 307.199219 29.636719 306.769531 C 36.648438 305.820312 43.816406 305.355469 50.867188 305.402344 C 57.023438 305.441406 63.386719 305.914062 68.214844 309.117188 C 72.109375 311.703125 74.945312 317.386719 72.785156 321.410156 C 72.730469 321.515625 72.699219 321.628906 72.652344 321.738281 L 29.859375 321.882812 C 28.511719 321.886719 26.867188 321.789062 25.15625 321.683594 C 23.550781 321.585938 21.886719 321.488281 20.207031 321.453125 C 20.082031 320.945312 19.855469 320.453125 19.523438 320.007812 C 17.234375 316.941406 17.929688 311.832031 20.953125 309.488281 Z M 11.582031 330.800781 C 13.433594 329.78125 16.121094 329.5 18.996094 329.5 C 20.863281 329.5 22.8125 329.617188 24.664062 329.730469 C 26.511719 329.84375 28.261719 329.945312 29.886719 329.945312 L 460.582031 328.492188 C 466.160156 328.472656 472.480469 328.453125 477.5 330.820312 C 479.292969 331.664062 481.011719 333.023438 482.292969 334.640625 L 8.570312 335.769531 C 8.621094 333.480469 9.578125 331.898438 11.582031 330.800781 Z M 220.1875 443.492188 L 274.226562 442.417969 L 274.035156 454.257812 L 219.921875 453.722656 Z M 274.292969 438.386719 L 220.289062 439.460938 L 220.609375 427.195312 L 274.460938 428.125 Z M 300.789062 477.613281 C 308.015625 477.828125 315.492188 478.054688 321.816406 479.800781 C 327.386719 481.339844 331.117188 486.710938 330.894531 492.867188 C 330.730469 497.382812 328.519531 503.417969 311.300781 503.726562 C 269.496094 504.472656 227.15625 503.230469 185.460938 500.03125 C 177.871094 499.449219 169.683594 498.121094 166.53125 492.683594 C 164.933594 489.933594 165.265625 486.988281 165.824219 485.003906 C 166.980469 480.90625 170.070312 477.074219 173.894531 475.003906 C 179.027344 472.222656 185.054688 471.535156 191.765625 471.535156 C 194.089844 471.535156 196.5 471.617188 198.980469 471.722656 C 215.292969 472.4375 231.816406 473.292969 248.089844 474.273438 C 262.359375 475.132812 276.859375 476.113281 291.183594 477.1875 C 294.296875 477.417969 297.597656 477.519531 300.789062 477.613281 Z M 248.570312 466.222656 C 238.980469 465.648438 229.308594 465.117188 219.636719 464.628906 L 219.816406 457.75 L 273.96875 458.289062 L 273.8125 467.859375 C 265.371094 467.277344 256.933594 466.730469 248.570312 466.222656 Z M 274.527344 424.097656 L 220.714844 423.167969 L 220.988281 412.472656 C 226.558594 412.613281 232.132812 412.691406 237.707031 412.6875 C 250.054688 412.6875 262.40625 412.335938 274.730469 411.65625 Z M 328.742188 393.078125 C 322.878906 398.957031 313.492188 400.347656 304.382812 401.269531 C 265.027344 405.25 225.074219 405.691406 185.636719 402.578125 C 177.949219 401.972656 170.609375 401.089844 165.351562 397.015625 C 160.910156 393.578125 157.886719 387.496094 157.054688 380.328125 C 156.332031 374.089844 157.152344 367.589844 158.097656 361.234375 L 334.554688 359.429688 C 335.902344 371.570312 336.652344 385.152344 328.742188 393.078125 Z M 484.339844 341.480469 C 482.796875 349.035156 469.75 349.984375 464.210938 350.039062 L 42.769531 354.347656 C 34.195312 354.441406 24.472656 354.535156 16.976562 350.097656 C 13.980469 348.324219 10.65625 344.03125 9.253906 339.796875 L 484.289062 338.667969 C 484.492188 339.597656 484.53125 340.546875 484.339844 341.480469 Z M 484.339844 341.480469 " style=" stroke:none;fill-rule:nonzero;fill:rgb(0%,0%,0%);fill-opacity:1;" />
<path d="M 23.039062 102.699219 C 27.148438 105.023438 31.847656 106.179688 36.570312 106.179688 C 38.59375 106.179688 40.617188 105.957031 42.601562 105.535156 C 43.019531 105.878906 43.511719 106.144531 44.066406 106.300781 L 87.167969 118.355469 C 72.808594 131.753906 61.601562 148.515625 55.015625 167.195312 C 53.246094 172.207031 51.652344 178.671875 55.023438 184.214844 C 58.722656 190.292969 66.015625 191.535156 71.953125 191.9375 C 76.078125 192.214844 80.199219 192.355469 84.316406 192.355469 C 112.171875 192.355469 139.800781 186.003906 164.902344 173.757812 C 188.660156 162.167969 210.003906 145.253906 226.625 124.84375 C 231.707031 118.605469 233.53125 113.082031 232.199219 107.953125 C 230.75 102.355469 225.800781 98.042969 216.621094 94.378906 C 203.589844 89.179688 189.773438 86.242188 175.566406 85.644531 C 161.015625 85.035156 146.3125 87.015625 132.773438 91.375 C 132.703125 91.351562 132.640625 91.316406 132.566406 91.296875 L 64.210938 73.785156 C 63.941406 72.429688 63.5625 71.097656 63.085938 69.804688 L 99.449219 35.859375 C 103.128906 32.425781 107.296875 28.535156 109.738281 23.285156 C 112.761719 16.792969 112.109375 9.609375 108.078125 4.976562 C 103.691406 -0.0625 95.640625 -1.445312 88.503906 1.613281 C 82.667969 4.109375 78.429688 8.691406 74.691406 12.734375 L 37.316406 53.128906 C 32.875 53.410156 28.347656 54.6875 24.136719 56.96875 C 15.558594 61.621094 10.109375 69.507812 9.554688 78.070312 C 8.921875 87.878906 14.339844 97.777344 23.039062 102.699219 Z M 53.527344 100.574219 C 59.402344 96.125 63.445312 89.320312 64.453125 82.171875 L 119.898438 96.378906 C 110.804688 100.539062 102.273438 105.820312 94.492188 112.03125 Z M 161.367188 166.511719 C 153.488281 170.355469 145.347656 173.570312 137.027344 176.183594 C 140.121094 169.234375 146.230469 163.632812 153.46875 161.273438 C 159.074219 159.445312 165.273438 159.589844 170.847656 161.5 C 167.738281 163.265625 164.578125 164.945312 161.367188 166.511719 Z M 175.238281 158.925781 C 168.109375 155.609375 159.699219 155 152.21875 157.441406 C 143.007812 160.441406 135.371094 168.015625 132.296875 177.203125 C 132.25 177.339844 132.21875 177.480469 132.203125 177.621094 C 112.875 183.089844 92.660156 185.257812 72.5 183.890625 C 70.65625 183.765625 68.457031 183.539062 66.496094 182.96875 C 82.039062 164.449219 101.15625 149.054688 122.382812 137.460938 C 127.148438 139.183594 131.804688 140.058594 136.265625 140.058594 C 136.988281 140.058594 137.707031 140.035156 138.421875 139.988281 C 144.980469 139.570312 151.015625 137.136719 155.414062 133.140625 C 159.074219 129.820312 161.496094 125.457031 162.335938 120.902344 C 182.402344 115.007812 203.363281 112.257812 224.269531 113.082031 C 223.734375 114.992188 222.433594 117.222656 220.375 119.753906 C 207.796875 135.195312 192.382812 148.535156 175.238281 158.925781 Z M 127.410156 134.804688 C 137.183594 129.820312 147.363281 125.617188 157.8125 122.277344 C 156.855469 125.210938 155.09375 127.988281 152.703125 130.15625 C 148.980469 133.539062 143.816406 135.601562 138.164062 135.964844 C 134.726562 136.1875 131.125 135.789062 127.410156 134.804688 Z M 219.773438 104.886719 C 159.855469 104.046875 99.957031 131.15625 61.121094 176.832031 C 61.101562 174.59375 61.851562 172.058594 62.621094 169.875 C 63.558594 167.21875 64.601562 164.613281 65.734375 162.042969 C 82.941406 142.738281 104.234375 127.046875 127.804688 116.410156 C 153.164062 104.96875 181.175781 99.371094 208.984375 100.132812 C 210.546875 100.675781 212.09375 101.257812 213.632812 101.871094 C 216.09375 102.851562 218.140625 103.859375 219.773438 104.886719 Z M 170.367188 93.597656 C 171.988281 93.597656 173.609375 93.632812 175.230469 93.703125 C 181.960938 93.984375 188.59375 94.832031 195.085938 96.230469 C 171.347656 97.355469 147.800781 102.964844 126.144531 112.734375 C 106.269531 121.703125 87.96875 134.191406 72.296875 149.371094 C 85.769531 126.941406 106.839844 109.261719 131.601562 100.285156 C 143.738281 95.886719 157.042969 93.597656 170.367188 93.597656 Z M 80.609375 18.210938 C 83.957031 14.589844 87.421875 10.84375 91.675781 9.023438 C 94.9375 7.625 99.664062 7.589844 102 10.273438 C 104.195312 12.792969 103.761719 17.023438 102.429688 19.882812 C 100.648438 23.710938 97.242188 26.890625 93.949219 29.964844 L 59.046875 62.542969 C 57.046875 59.988281 54.597656 57.804688 51.789062 56.226562 C 50.351562 55.417969 48.828125 54.769531 47.242188 54.273438 Z M 17.601562 78.585938 C 17.976562 72.8125 21.855469 67.378906 27.980469 64.054688 C 31.597656 62.09375 35.484375 61.105469 39.171875 61.105469 C 42.296875 61.105469 45.28125 61.816406 47.835938 63.253906 C 53.324219 66.339844 56.863281 72.777344 56.640625 79.269531 C 56.417969 85.65625 52.601562 91.964844 46.914062 95.335938 C 40.921875 98.886719 32.921875 99.027344 27.007812 95.679688 C 21.039062 92.300781 17.171875 85.273438 17.601562 78.585938 Z M 17.601562 78.585938 " style=" stroke:none;fill-rule:nonzero;fill:rgb(0%,0%,0%);fill-opacity:1;" />
<path d="M 126.007812 147.648438 C 118.699219 144.996094 112.996094 147.546875 106.960938 150.25 L 106.75 150.34375 C 99.671875 153.511719 93.859375 158.046875 89.476562 163.820312 C 86.109375 168.25 85.140625 172.570312 86.75 175.976562 C 87.8125 178.226562 90.003906 179.976562 92.757812 180.777344 C 94.222656 181.203125 95.703125 181.335938 97.105469 181.335938 C 97.996094 181.335938 98.855469 181.28125 99.660156 181.214844 C 109.925781 180.347656 119.964844 176.273438 127.925781 169.734375 C 132.175781 166.242188 134.328125 162.769531 134.511719 159.117188 C 134.78125 153.714844 130.4375 149.257812 126.007812 147.648438 Z M 125.367188 166.617188 C 118.03125 172.640625 108.78125 176.402344 99.320312 177.199219 C 97.621094 177.339844 95.644531 177.417969 93.878906 176.90625 C 92.257812 176.4375 90.957031 175.445312 90.394531 174.253906 C 89.132812 171.582031 91.289062 168.097656 92.6875 166.257812 C 96.65625 161.027344 101.945312 156.914062 108.398438 154.023438 L 108.609375 153.929688 C 112.667969 152.113281 116.121094 150.566406 119.84375 150.566406 C 121.371094 150.566406 122.945312 150.828125 124.628906 151.4375 C 127.667969 152.542969 130.65625 155.464844 130.484375 158.917969 C 130.363281 161.371094 128.6875 163.886719 125.367188 166.617188 Z M 125.367188 166.617188 " style=" stroke:none;fill-rule:nonzero;fill:rgb(0%,0%,0%);fill-opacity:1;" />
<path d="M 200.265625 116.863281 C 194.167969 116.617188 186.648438 118.585938 179.664062 122.253906 C 175.761719 124.300781 172.21875 126.867188 169.128906 129.882812 C 165.316406 133.601562 163.878906 137.359375 164.972656 140.75 C 165.703125 143.019531 167.574219 144.890625 170.109375 145.882812 C 172.019531 146.632812 174.011719 146.785156 175.679688 146.785156 C 175.972656 146.785156 176.257812 146.78125 176.53125 146.773438 C 187.144531 146.492188 197.632812 141.539062 204.59375 133.519531 C 208.261719 129.296875 209.222656 125.332031 207.445312 121.738281 C 205.949219 118.71875 203.402344 116.988281 200.265625 116.863281 Z M 201.546875 130.878906 C 195.316406 138.058594 185.925781 142.492188 176.421875 142.746094 C 174.992188 142.785156 173.152344 142.746094 171.578125 142.132812 C 170.195312 141.589844 169.160156 140.613281 168.808594 139.515625 C 168.023438 137.074219 170.4375 134.238281 171.945312 132.765625 C 174.753906 130.027344 177.980469 127.691406 181.535156 125.820312 C 187.570312 122.652344 193.953125 120.875 199.21875 120.875 C 199.515625 120.875 199.8125 120.878906 200.105469 120.890625 C 201.765625 120.957031 202.984375 121.816406 203.828125 123.523438 C 204.195312 124.269531 205.316406 126.539062 201.546875 130.878906 Z M 201.546875 130.878906 " style=" stroke:none;fill-rule:nonzero;fill:rgb(0%,0%,0%);fill-opacity:1;" />
<path d="M 150.886719 139.675781 C 146.476562 140.707031 142.410156 142.859375 139.128906 145.910156 C 136.433594 148.414062 135.421875 151.148438 136.28125 153.609375 C 137.140625 156.078125 139.730469 157.621094 143.378906 157.84375 C 143.859375 157.871094 144.335938 157.886719 144.816406 157.886719 C 149.191406 157.886719 153.585938 156.679688 157.335938 154.433594 C 159.726562 153 161.375 151.398438 162.378906 149.539062 C 163.761719 146.988281 163.753906 143.925781 162.359375 141.742188 C 159.734375 137.609375 153.992188 138.949219 150.886719 139.675781 Z M 158.832031 147.621094 C 158.183594 148.828125 157.015625 149.925781 155.261719 150.976562 C 151.792969 153.054688 147.660156 154.0625 143.625 153.820312 C 142.210938 153.734375 140.433594 153.28125 140.085938 152.285156 C 139.742188 151.304688 140.785156 149.875 141.871094 148.863281 C 144.640625 146.292969 148.074219 144.472656 151.824219 143.597656 C 153.015625 143.320312 154.78125 142.90625 156.289062 142.90625 C 157.464844 142.90625 158.480469 143.15625 158.957031 143.90625 C 159.570312 144.863281 159.519531 146.355469 158.832031 147.621094 Z M 158.832031 147.621094 " style=" stroke:none;fill-rule:nonzero;fill:rgb(0%,0%,0%);fill-opacity:1;" />
<path d="M 350.695312 138.816406 L 350.476562 138.726562 C 343.292969 135.808594 336 134.75 328.796875 135.582031 C 323.265625 136.21875 319.480469 138.507812 318.132812 142.027344 C 317.242188 144.351562 317.496094 147.140625 318.824219 149.683594 C 319.980469 151.898438 321.730469 153.597656 323.285156 154.96875 C 331.015625 161.78125 340.902344 166.207031 351.132812 167.429688 C 352.316406 167.570312 353.429688 167.640625 354.480469 167.640625 C 358.269531 167.640625 361.191406 166.714844 363.355469 164.839844 C 367.441406 161.296875 367.652344 155.074219 365.746094 150.761719 C 362.605469 143.648438 356.820312 141.300781 350.695312 138.816406 Z M 360.710938 161.792969 C 358.859375 163.402344 355.882812 163.9375 351.609375 163.425781 C 342.183594 162.300781 333.070312 158.222656 325.949219 151.945312 C 324.671875 150.820312 323.246094 149.445312 322.394531 147.816406 C 321.613281 146.320312 321.429688 144.695312 321.898438 143.464844 C 322.953125 140.707031 326.960938 139.851562 329.257812 139.585938 C 335.777344 138.835938 342.40625 139.800781 348.960938 142.460938 L 349.175781 142.546875 C 354.988281 144.90625 359.578125 146.769531 362.058594 152.386719 C 363.367188 155.347656 363.324219 159.527344 360.710938 161.792969 Z M 360.710938 161.792969 " style=" stroke:none;fill-rule:nonzero;fill:rgb(0%,0%,0%);fill-opacity:1;" />
<path d="M 421.214844 171.921875 C 417.03125 170.519531 412.726562 169.738281 408.414062 169.59375 C 403.097656 169.421875 399.386719 170.980469 397.691406 174.117188 C 396.558594 176.214844 396.503906 178.859375 397.539062 181.375 C 398.457031 183.605469 400.054688 185.355469 401.339844 186.628906 C 408.460938 193.671875 418.511719 197.761719 428.53125 197.761719 C 429.128906 197.761719 429.730469 197.746094 430.328125 197.714844 C 435.914062 197.441406 439.441406 195.390625 440.808594 191.617188 C 441.953125 188.449219 441.441406 185.410156 439.359375 183.0625 C 435.308594 178.484375 428.691406 174.425781 421.214844 171.921875 Z M 437.019531 190.246094 C 436.734375 191.027344 435.871094 193.40625 430.128906 193.6875 C 420.632812 194.160156 410.933594 190.445312 404.175781 183.761719 C 403.160156 182.753906 401.910156 181.402344 401.269531 179.839844 C 400.703125 178.46875 400.691406 177.042969 401.238281 176.03125 C 402.34375 173.984375 405.5 173.613281 407.648438 173.613281 C 407.871094 173.613281 408.082031 173.617188 408.28125 173.625 C 412.199219 173.753906 416.121094 174.464844 419.933594 175.742188 C 426.761719 178.027344 432.742188 181.671875 436.339844 185.734375 C 437.445312 186.980469 437.664062 188.457031 437.019531 190.246094 Z M 437.019531 190.246094 " style=" stroke:none;fill-rule:nonzero;fill:rgb(0%,0%,0%);fill-opacity:1;" />
<path d="M 388.71875 163.203125 C 384.925781 160.734375 380.554688 159.289062 376.082031 159.03125 C 372.40625 158.816406 369.734375 159.980469 368.554688 162.304688 C 367.367188 164.632812 368.046875 167.566406 370.410156 170.355469 C 373.550781 174.054688 377.851562 176.792969 382.53125 178.070312 C 384.050781 178.484375 385.445312 178.691406 386.738281 178.691406 C 387.734375 178.691406 388.671875 178.570312 389.554688 178.324219 C 392.351562 177.554688 394.554688 175.433594 395.171875 172.914062 C 396.332031 168.160156 391.394531 164.945312 388.71875 163.203125 Z M 391.253906 171.957031 C 390.984375 173.0625 389.871094 174.058594 388.484375 174.441406 C 387.164062 174.804688 385.5625 174.71875 383.589844 174.179688 C 379.691406 173.117188 376.101562 170.832031 373.484375 167.75 C 372.570312 166.667969 371.667969 165.070312 372.144531 164.132812 C 372.558594 163.320312 373.953125 163.039062 375.289062 163.039062 C 375.476562 163.039062 375.664062 163.042969 375.851562 163.054688 C 379.621094 163.273438 383.308594 164.492188 386.539062 166.59375 C 388.359375 167.777344 391.738281 169.980469 391.253906 171.957031 Z M 391.253906 171.957031 " style=" stroke:none;fill-rule:nonzero;fill:rgb(0%,0%,0%);fill-opacity:1;" />
<path d="M 37.875 92.441406 C 39.386719 92.441406 40.90625 92.15625 42.328125 91.558594 C 47.242188 89.492188 50.320312 83.957031 49.488281 78.675781 C 48.78125 74.183594 45.757812 70.71875 41.398438 69.414062 C 36.882812 68.0625 32.125 69.378906 28.964844 72.851562 C 25.390625 76.78125 25.027344 83.25 28.136719 87.574219 C 30.371094 90.679688 34.113281 92.441406 37.875 92.441406 Z M 31.945312 75.566406 C 34.050781 73.253906 37.234375 72.375 40.238281 73.277344 C 43.078125 74.125 45.046875 76.378906 45.507812 79.304688 C 46.046875 82.746094 43.964844 86.496094 40.765625 87.839844 C 37.546875 89.191406 33.4375 88.042969 31.410156 85.21875 C 29.402344 82.429688 29.644531 78.097656 31.945312 75.566406 Z M 31.945312 75.566406 " style=" stroke:none;fill-rule:nonzero;fill:rgb(0%,0%,0%);fill-opacity:1;" />
<path d="M 416.648438 38.695312 C 412.140625 37.34375 407.375 38.660156 404.21875 42.132812 C 400.644531 46.066406 400.277344 52.53125 403.386719 56.855469 C 405.621094 59.960938 409.363281 61.722656 413.125 61.722656 C 414.640625 61.722656 416.15625 61.4375 417.578125 60.839844 C 422.492188 58.773438 425.570312 53.238281 424.738281 47.957031 C 424.035156 43.464844 421.007812 40.003906 416.648438 38.695312 Z M 416.019531 57.121094 C 412.800781 58.472656 408.691406 57.324219 406.660156 54.5 C 404.65625 51.707031 404.894531 47.378906 407.199219 44.847656 C 409.304688 42.53125 412.484375 41.65625 415.492188 42.554688 C 418.328125 43.40625 420.296875 45.660156 420.757812 48.582031 C 421.300781 52.027344 419.21875 55.777344 416.019531 57.121094 Z M 416.019531 57.121094 " style=" stroke:none;fill-rule:nonzero;fill:rgb(0%,0%,0%);fill-opacity:1;" />
<path d="M 506.773438 11.898438 C 503.730469 7.125 497.738281 4.179688 491.101562 4.179688 C 491.035156 4.179688 490.96875 4.179688 490.90625 4.179688 C 485.382812 4.226562 480.230469 6.085938 475.683594 7.722656 L 428.105469 24.875 C 427.699219 25.023438 427.34375 25.242188 427.015625 25.496094 C 419.058594 21.03125 408.476562 21.320312 399.386719 26.25 C 390.808594 30.90625 385.359375 38.792969 384.808594 47.351562 C 384.332031 54.738281 387.285156 62.167969 392.484375 67.492188 L 385.351562 106.503906 C 358.066406 99.164062 328.417969 101.304688 302.511719 113.039062 C 297.667969 115.234375 291.898438 118.554688 290.230469 124.824219 C 288.402344 131.699219 292.550781 137.824219 296.371094 142.390625 C 316.945312 166.984375 343.726562 185.835938 373.816406 196.90625 C 394.078125 204.363281 415.78125 208.199219 437.347656 208.199219 C 442.191406 208.199219 447.027344 208.003906 451.839844 207.617188 C 459.859375 206.964844 465.109375 204.460938 467.890625 199.953125 C 470.925781 195.03125 470.613281 188.472656 466.90625 179.3125 C 461.640625 166.304688 454.207031 154.300781 444.804688 143.632812 C 437.136719 134.929688 428.214844 127.296875 418.582031 121.136719 L 424.296875 73.492188 C 424.332031 73.191406 424.328125 72.898438 424.296875 72.609375 C 424.96875 72.28125 425.632812 71.9375 426.277344 71.554688 C 430.011719 69.339844 433.164062 66.203125 435.503906 62.574219 C 435.800781 62.535156 436.101562 62.476562 436.394531 62.367188 L 485.226562 44.210938 C 491.238281 41.976562 498.054688 39.445312 503.167969 34.160156 C 508.5 28.652344 511.449219 19.238281 506.773438 11.898438 Z M 305.839844 120.382812 C 308.398438 119.222656 311.003906 118.171875 313.636719 117.210938 C 339.484375 116.273438 365.550781 120.785156 389.539062 130.441406 C 415.351562 140.828125 438.773438 157.175781 457.46875 177.777344 C 458.15625 179.28125 458.808594 180.800781 459.433594 182.335938 C 460.425781 184.792969 461.113281 186.964844 461.5 188.855469 C 420.636719 145 359.613281 120.542969 299.78125 124.113281 C 301.382812 122.550781 303.730469 121.339844 305.839844 120.382812 Z M 406.058594 156.160156 C 403.285156 157.496094 400.074219 158.152344 396.847656 157.929688 C 391.828125 157.582031 386.765625 155.28125 382.59375 151.453125 C 380.058594 149.125 377.855469 146.25 375.992188 142.890625 C 386.351562 146.496094 396.421875 150.929688 406.058594 156.160156 Z M 352.777344 178.460938 C 359.9375 175.890625 368.207031 176.421875 374.917969 180.011719 C 380.113281 182.792969 384.300781 187.371094 386.78125 192.71875 C 383.351562 191.691406 379.953125 190.574219 376.601562 189.339844 C 368.375 186.3125 360.421875 182.660156 352.777344 178.460938 Z M 451.1875 199.578125 C 431.332031 201.1875 411.039062 199.289062 391.675781 194.105469 C 389.136719 186.664062 383.753906 180.171875 376.820312 176.460938 C 368.277344 171.886719 357.527344 171.617188 348.765625 175.75 C 348.632812 175.816406 348.511719 175.890625 348.402344 175.976562 C 331.074219 165.804688 315.523438 152.710938 302.558594 137.214844 C 301.371094 135.800781 300.015625 134.050781 299.066406 132.242188 C 323.195312 130.644531 347.539062 133.796875 370.601562 141.101562 C 372.992188 146.480469 376.097656 150.960938 379.867188 154.421875 C 384.710938 158.867188 390.640625 161.542969 396.570312 161.953125 C 397.097656 161.988281 397.625 162.007812 398.152344 162.007812 C 402.519531 162.007812 406.722656 160.738281 410.171875 158.46875 C 428.324219 168.878906 444.820312 182.113281 458.695312 197.773438 C 456.949219 198.710938 454.4375 199.316406 451.1875 199.578125 Z M 438.753906 148.960938 C 443.210938 154.015625 447.1875 159.394531 450.671875 165.046875 C 433.429688 148.6875 413.085938 135.574219 391.046875 126.699219 C 370.820312 118.558594 349.144531 113.992188 327.347656 113.179688 C 335.78125 111.265625 344.414062 110.300781 353.050781 110.300781 C 370.527344 110.300781 388.007812 114.21875 403.808594 122.023438 C 416.789062 128.433594 428.875 137.75 438.753906 148.960938 Z M 410.996094 116.671875 C 409.800781 116.023438 408.59375 115.390625 407.382812 114.792969 C 402.746094 112.503906 397.976562 110.539062 393.113281 108.878906 L 399.722656 72.722656 C 403.476562 74.546875 407.640625 75.460938 411.824219 75.460938 C 413.210938 75.460938 414.597656 75.351562 415.976562 75.152344 Z M 422.164062 64.617188 C 416.175781 68.167969 408.171875 68.304688 402.261719 64.960938 C 396.289062 61.582031 392.421875 54.554688 392.855469 47.867188 C 393.226562 42.09375 397.105469 36.660156 403.234375 33.335938 C 406.851562 31.375 410.734375 30.386719 414.425781 30.386719 C 417.550781 30.386719 420.535156 31.097656 423.089844 32.535156 C 428.574219 35.621094 432.113281 42.058594 431.890625 48.550781 C 431.671875 54.9375 427.851562 61.242188 422.164062 64.617188 Z M 497.375 28.550781 C 493.53125 32.519531 487.628906 34.714844 482.417969 36.652344 L 439.519531 52.601562 C 439.753906 51.351562 439.90625 50.089844 439.949219 48.828125 C 440.164062 42.488281 437.882812 36.179688 433.921875 31.347656 L 478.417969 15.308594 C 482.550781 13.816406 486.824219 12.277344 490.976562 12.242188 C 494.851562 12.171875 498.40625 13.773438 499.972656 16.230469 C 502.292969 19.867188 500.472656 25.351562 497.375 28.550781 Z M 497.375 28.550781 " style=" stroke:none;fill-rule:nonzero;fill:rgb(0%,0%,0%);fill-opacity:1;" />
<path d="M 187.71875 394.820312 C 189.589844 394.820312 191.460938 394.445312 193.195312 393.648438 C 199.289062 390.851562 202.578125 383.15625 200.382812 376.839844 C 198.578125 371.644531 194.664062 368.316406 189.644531 367.710938 C 184.226562 367.054688 178.410156 369.742188 175.492188 374.246094 C 172.804688 378.386719 172.894531 383.484375 175.734375 388.222656 C 178.234375 392.390625 182.972656 394.820312 187.71875 394.820312 Z M 178.871094 376.4375 C 180.777344 373.507812 184.386719 371.640625 187.960938 371.640625 C 188.363281 371.640625 188.761719 371.664062 189.160156 371.710938 C 192.640625 372.132812 195.273438 374.425781 196.574219 378.164062 C 198.09375 382.527344 195.730469 388.050781 191.515625 389.984375 C 187.253906 391.9375 181.613281 390.183594 179.191406 386.148438 C 176.5625 381.765625 177.566406 378.449219 178.871094 376.4375 Z M 178.871094 376.4375 " style=" stroke:none;fill-rule:nonzero;fill:rgb(0%,0%,0%);fill-opacity:1;" />
<path d="M 307.648438 394.820312 C 309.515625 394.820312 311.386719 394.445312 313.125 393.648438 C 319.214844 390.851562 322.507812 383.15625 320.308594 376.839844 C 318.503906 371.644531 314.589844 368.316406 309.570312 367.710938 C 304.15625 367.054688 298.335938 369.742188 295.417969 374.246094 C 292.730469 378.386719 292.820312 383.484375 295.660156 388.222656 C 298.160156 392.390625 302.898438 394.820312 307.648438 394.820312 Z M 298.800781 376.4375 C 300.914062 373.179688 305.144531 371.234375 309.085938 371.710938 C 312.566406 372.132812 315.199219 374.425781 316.503906 378.164062 C 318.019531 382.527344 315.65625 388.050781 311.441406 389.984375 C 307.183594 391.9375 301.539062 390.179688 299.117188 386.148438 C 296.492188 381.765625 297.496094 378.449219 298.800781 376.4375 Z M 298.800781 376.4375 " style=" stroke:none;fill-rule:nonzero;fill:rgb(0%,0%,0%);fill-opacity:1;" />
</g>
</svg>