<svg height="512pt" viewBox="0 0 512 512" width="512pt" xmlns="http://www.w3.org/2000/svg"><path d="m136 277 120 235h256v-135zm0 0" fill="#a4a6aa"/><path d="m0 377v135h256v-235zm0 0" fill="#c2c4c6"/><path d="m512 377v-377h-256l-130 188.5 130 188.5zm0 0" fill="#c2c4c6"/><path d="m0 0h256v377h-256zm0 0" fill="#e1e1e3"/><path d="m452 60h-196l-120 136 120 136h196zm0 0"/><g fill="#202833"><path d="m60 60h196v272h-196zm0 0"/><path d="m422 422h30v30h-30zm0 0"/><path d="m362 422h30v30h-30zm0 0"/><path d="m302 422h30v30h-30zm0 0"/></g><path d="m60 422h30v30h-30zm0 0" fill="#414851"/><path d="m355.445312 181-38.777343-63.921875-60.667969 100h-20l20 57.84375 60.667969-100 21.886719 36.078125h113.445312v-30zm0 0" fill="#59d1cc"/><path d="m195.332031 117.078125-38.777343 63.921875h-96.554688v30h113.445312l21.886719-36.078125 60.667969 100v-57.84375zm0 0" fill="#66fcf1"/></svg>