<?xml version="1.0" encoding="utf-8"?>
<!-- Generator: Adobe Illustrator 20.1.0, SVG Export Plug-In . SVG Version: 6.00 Build 0)  -->
<svg version="1.1" xmlns="http://www.w3.org/2000/svg" xmlns:xlink="http://www.w3.org/1999/xlink" x="0px" y="0px"
	 viewBox="0 0 526.8 85" style="enable-background:new 0 0 526.8 85;" xml:space="preserve">
<style type="text/css">
	.st0{fill:#FFFFFF;}
</style>
<g id="Background">
</g>
<g id="Guides">
</g>
<g id="RASTERLINIEN">
</g>
<g id="Foreground">
	<g>
		<path d="M526.8,70.9c0,7.8-6.3,14.2-14.2,14.2H14.2C6.3,85,0,78.7,0,70.9V14.2C0,6.3,6.3,0,14.2,0h498.5c7.8,0,14.2,6.3,14.2,14.2
			V70.9z"/>
		<g>
			<path class="st0" d="M22.6,14h29.6c15.6,0,21.1,10.9,21.1,18.7c0,13.2-9.3,19.4-22.5,19.4H40.3v16.5H22.6V14z M40.3,39.1h6.8
				c4.6,0,9.4-0.3,9.4-5.8c0-5-4-5.3-8.4-5.3h-7.9V39.1z"/>
			<path class="st0" d="M75.2,14h15.9v54.6H75.2V14z"/>
			<path class="st0" d="M136.6,59.8c0,3,0.2,6.4,1.9,8.9h-16.2c-0.4-1.1-0.6-2.7-0.6-3.8h-0.2c-3.4,3.7-8.3,4.7-13.4,4.7
				c-8,0-14.7-3.7-14.7-12c0-12.6,15.4-12.1,23.5-13.5c2.2-0.4,4.3-1,4.3-3.5c0-2.7-2.7-3.7-5.2-3.7c-4.9,0-5.9,2.4-5.9,4.1H95.4
				c0.5-11.2,11.6-13,21.5-13c19.9,0,19.8,7.9,19.8,15.5V59.8z M121.3,50.8c-1.9,0.9-4.1,1.5-6.3,1.9c-3.5,0.8-5.4,1.6-5.4,4.3
				c0,1.8,2.1,3.7,5,3.7c3.6,0,6.4-2.1,6.7-6.2V50.8z"/>
			<path class="st0" d="M164.4,40.5c-0.1-1.3-0.8-2.3-1.8-3c-1-0.8-2.3-1.1-3.5-1.1c-2.3,0-4.8,0.5-4.8,3.1c0,1.1,1,1.7,1.8,2.1
				c2.7,1.1,8.7,1.4,14,3.1c5.3,1.6,10,4.6,10,11.1c0,11-11.1,14-21.2,14c-9.8,0-20.6-3.8-20.8-14h15.2c0.1,1.4,0.7,2.5,1.9,3.5
				c0.8,0.7,2.3,1.1,4.3,1.1c2.1,0,5.4-0.8,5.4-3.1c0-2.3-1.4-3-8.8-4.2c-12.1-2-17-5.7-17-12.5c0-10,11.3-12.6,19.7-12.6
				c9,0,19.8,2.4,20.2,12.6H164.4z"/>
			<path class="st0" d="M206.6,40.5c-0.1-1.3-0.8-2.3-1.8-3c-1-0.8-2.3-1.1-3.5-1.1c-2.2,0-4.8,0.5-4.8,3.1c0,1.1,1,1.7,1.8,2.1
				c2.7,1.1,8.7,1.4,14,3.1c5.3,1.6,10,4.6,10,11.1c0,11-11.1,14-21.2,14c-9.8,0-20.6-3.8-20.8-14h15.2c0.1,1.4,0.7,2.5,1.9,3.5
				c0.8,0.7,2.3,1.1,4.3,1.1c2.1,0,5.4-0.8,5.4-3.1c0-2.3-1.4-3-8.8-4.2c-12.1-2-17-5.7-17-12.5c0-10,11.3-12.6,19.7-12.6
				c9,0,19.8,2.4,20.2,12.6H206.6z"/>
			<path class="st0" d="M237.8,52.2c0.4,4.5,3.1,7.7,8.1,7.7c2.6,0,5.4-0.9,6.7-2.8h14.9c-3.2,8.6-12,12.6-21.5,12.6
				c-13.3,0-23.4-7.5-23.4-20.7c0-11.6,8.8-21,22-21c16.6,0,23.7,8.8,23.7,24.3H237.8z M253.1,44.3c0-3.7-2.9-6.7-7-6.7
				c-4.7,0-7.5,2.4-8.2,6.7H253.1z"/>
			<path class="st0" d="M270.6,28.9h15.3v6.4h0.2c2.6-4.7,5.9-7.3,11.7-7.3c1.6,0,3.1,0.2,4.7,0.6V42c-1.6-0.5-3.1-1-6.3-1
				c-6.3,0-9.6,3.5-9.6,12v15.7h-15.9V28.9z"/>
			<path class="st0" d="M323.8,14h17.7v54.6h-17.7V14z"/>
			<path class="st0" d="M346.5,28.9h15.3V34h0.2c3-4,7.2-6,13.6-6c7.5,0,14.3,4.4,14.3,13.5v27.2h-15.9V47.8c0-4.6-0.6-7.8-5.2-7.8
				c-2.7,0-6.3,1.3-6.3,7.7v21h-15.9V28.9z"/>
			<path class="st0" d="M437.9,68.7h-15.3v-4.4h-0.2c-2,2.5-4.4,5.4-12.2,5.4c-11.8,0-17.5-11.1-17.5-21c0-9.3,3.8-20.7,17.8-20.7
				c4.7,0,9,2,11.4,5.4h0.2V14h15.9V68.7z M415.6,39c-5.7,0-7,5.1-7,9.8c0,4.7,1.3,9.9,7,9.9c5.7,0,7-5.1,7-9.9
				C422.6,44.1,421.3,39,415.6,39z"/>
			<path class="st0" d="M458.7,24.7h-15.9V14h15.9V24.7z M442.8,28.9h15.9v39.7h-15.9V28.9z"/>
			<path class="st0" d="M504.5,59.8c0,3,0.2,6.4,1.9,8.9h-16.2c-0.4-1.1-0.6-2.7-0.6-3.8h-0.2c-3.4,3.7-8.3,4.7-13.4,4.7
				c-8,0-14.7-3.7-14.7-12c0-12.6,15.4-12.1,23.5-13.5c2.2-0.4,4.3-1,4.3-3.5c0-2.7-2.7-3.7-5.2-3.7c-4.9,0-5.9,2.4-5.9,4.1h-14.8
				c0.5-11.2,11.6-13,21.5-13c19.9,0,19.8,7.9,19.8,15.5V59.8z M489.2,50.8c-1.9,0.9-4.1,1.5-6.3,1.9c-3.5,0.8-5.4,1.6-5.4,4.3
				c0,1.8,2.1,3.7,5,3.7c3.6,0,6.4-2.1,6.7-6.2V50.8z"/>
		</g>
	</g>
</g>
<g id="Raster_vorne">
</g>
</svg>
