<svg id="Capa_1" enable-background="new 0 0 512 512" height="512" viewBox="0 0 512 512" width="512" xmlns="http://www.w3.org/2000/svg"><g><g><path d="m238.933 477.869-8.533-34.134v-8.31h42.667v47.389h-33.911z" fill="#e2dfe2"/><path d="m136.533 477.869 8.534-34.134v-8.31h-42.667v47.389h33.91z" fill="#e2dfe2"/><path d="m112.255 384.773h150.956v58.961h-150.956z" fill="#cb835d"/><path d="m232.306 384.773h30.906v58.961h-30.906z" fill="#be7558"/><path d="m85.333 355.241v-167.508c0-18.851 15.282-34.133 34.133-34.133h136.534c18.851 0 34.133 15.282 34.133 34.133v167.507h-204.8z" fill="#cb835d"/><path d="m240 238.933h-104.533c-8.837 0-16-7.163-16-16v-19.2c0-8.837 7.163-16 16-16h104.533c8.837 0 16 7.163 16 16v19.2c0 8.837-7.163 16-16 16z" fill="#eaa96a"/><path d="m256 153.6h-23.694c18.851 0 34.133 15.282 34.133 34.133v167.507h23.694v-167.507c0-18.851-15.282-34.133-34.133-34.133z" fill="#be7558"/><path d="m239.517 187.733h-23.694c9.103 0 16.483 7.38 16.483 16.483v18.234c0 9.103-7.38 16.483-16.483 16.483h23.694c9.103 0 16.483-7.38 16.483-16.483v-18.234c0-9.103-7.38-16.483-16.483-16.483z" fill="#e5935d"/><path d="m119.467 307.2c0-28.939-24.009-52.27-53.195-51.162-26.537 1.008-48.16 22.63-49.167 49.167-1.012 26.648 18.35 48.98 43.752 52.663 4.225.613 7.41 4.139 7.41 8.408v43.324c0 18.851 15.282 34.133 34.133 34.133h17.067z" fill="#eaa96a"/><path d="m256 307.2c0-28.939 24.009-52.27 53.195-51.162 26.537 1.008 48.16 22.63 49.167 49.167 1.012 26.648-18.35 48.98-43.752 52.663-4.225.613-7.41 4.139-7.41 8.408v43.324c0 18.851-15.282 34.133-34.133 34.133h-17.067z" fill="#eaa96a"/><g><path d="m153.6 280.793h-8.533c-4.267 0-7.726-3.459-7.726-7.726s3.459-7.726 7.726-7.726h8.533c4.267 0 7.726 3.459 7.726 7.726s-3.459 7.726-7.726 7.726z" fill="#be7558"/></g><g><path d="m230.4 280.793h-8.533c-4.267 0-7.726-3.459-7.726-7.726s3.459-7.726 7.726-7.726h8.533c4.267 0 7.726 3.459 7.726 7.726s-3.459 7.726-7.726 7.726z" fill="#be7558"/></g><ellipse cx="68.267" cy="307.2" fill="#efd27c" rx="17.067" ry="17.067" transform="matrix(.095 -.996 .996 .095 -244.015 346.089)"/><ellipse cx="307.2" cy="307.2" fill="#efd27c" rx="17.067" ry="17.067" transform="matrix(.797 -.604 .604 .797 -123.178 247.882)"/><path d="m358.362 305.205c-1.008-26.537-22.631-48.159-49.167-49.167-4.785-.182-9.426.305-13.849 1.354 21.853 5.232 38.443 24.649 39.323 47.813 1.012 26.648-18.35 48.98-43.752 52.663-4.224.612-7.41 4.139-7.41 8.408v43.324c0 16.583-11.827 30.399-27.506 33.485v.648h17.067c18.851 0 34.133-15.282 34.133-34.133v-43.325c0-4.269 3.185-7.795 7.41-8.408 25.401-3.682 44.763-26.014 43.751-52.662z" fill="#e5935d"/><path d="m66.272 256.038c-3.372.128-6.664.592-9.845 1.354 22.559 5.35 39.345 25.613 39.345 49.808v135.885c2.144.422 4.359.648 6.628.648h17.067v-136.533c0-28.939-24.009-52.27-53.195-51.162z" fill="#e5935d"/><path d="m257.067 392.533h-138.667c-8.837 0-16-7.163-16-16v-19.2c0-8.836 7.163-16 16-16h138.667c8.836 0 16 7.164 16 16v19.2c0 8.837-7.164 16-16 16z" fill="#efd27c"/><path d="m256.584 341.333h-23.694c9.103 0 16.483 7.38 16.483 16.483v18.234c0 9.103-7.38 16.483-16.483 16.483h23.694c9.103 0 16.483-7.38 16.483-16.483v-18.234c0-9.103-7.38-16.483-16.483-16.483z" fill="#eabc73"/></g><g><g><g><path d="m469.333 212.526c-4.268 0-7.726-3.459-7.726-7.726v-68.267c0-4.267 3.459-7.726 7.726-7.726 4.268 0 7.726 3.459 7.726 7.726v68.267c0 4.267-3.458 7.726-7.726 7.726z" fill="#efd27c"/></g></g><g><path d="m401.067 124.137h34.133v331.993h-34.133z" fill="#f4f2f4"/><path d="m411.506 124.137h23.694v331.993h-23.694z" fill="#e2dfe2"/><path d="m477.867 485.593h-119.467v-33.86c0-4.418 3.582-8 8-8h103.467c4.418 0 8 3.582 8 8z" fill="#cb835d"/><path d="m484.651 136.533h-133.036c-5.343 0-9.372-4.854-8.387-10.106l22.4-119.467c.757-4.035 4.281-6.96 8.387-6.96h88.236c4.106 0 7.63 2.925 8.387 6.961l22.4 119.467c.985 5.251-3.044 10.105-8.387 10.105z" fill="#a7dda7"/><g fill="#8ace9b"><path d="m493.039 126.427-22.4-119.467c-.757-4.035-4.281-6.96-8.388-6.96h-23.854c4.106 0 7.63 2.925 8.387 6.961l22.4 119.467c.985 5.252-3.044 10.106-8.387 10.106h23.854c5.343-.001 9.372-4.855 8.388-10.107z"/><path d="m346.285 110.126h143.697l-2.897-15.452h-137.903z"/></g></g><path d="m469.625 443.733h-23.694c4.552 0 8.241 3.69 8.241 8.242v33.618h23.694v-33.618c.001-4.552-3.689-8.242-8.241-8.242z" fill="#be7558"/></g><g><path d="m274.133 119.467h-172.8c-8.837 0-16-7.163-16-16v-87.467c0-8.837 7.163-16 16-16h172.8c8.837 0 16 7.163 16 16v87.467c0 8.836-7.163 16-16 16z" fill="#eaa96a"/><path d="m248 85.333h-120.533c-4.418 0-8-3.582-8-8v-35.2c0-4.418 3.582-8 8-8h120.533c4.418 0 8 3.582 8 8v35.2c0 4.419-3.582 8-8 8z" fill="#a7ccf9"/><path d="m273.65 0h-23.694c9.103 0 16.483 7.38 16.483 16.483v86.501c0 9.103-7.38 16.483-16.483 16.483h23.694c9.103 0 16.483-7.38 16.483-16.483v-86.501c0-9.103-7.379-16.483-16.483-16.483z" fill="#e5935d"/><path d="m247.759 34.133h-23.694c4.552 0 8.241 3.69 8.241 8.242v34.717c0 4.552-3.69 8.241-8.241 8.241h23.694c4.552 0 8.241-3.69 8.241-8.241v-34.717c0-4.552-3.69-8.242-8.241-8.242z" fill="#8cbdf9"/></g><path d="m504 512h-496c-4.418 0-8-3.582-8-8v-18.133c0-4.418 3.582-8 8-8h496c4.418 0 8 3.582 8 8v18.133c0 4.418-3.582 8-8 8z" fill="#eaa96a"/><path d="m503.759 477.867h-23.694c4.552 0 8.241 3.69 8.241 8.242v17.65c0 4.552-3.69 8.241-8.241 8.241h23.694c4.551 0 8.241-3.69 8.241-8.241v-17.65c0-4.552-3.69-8.242-8.241-8.242z" fill="#e5935d"/></g></svg>