<?xml version="1.0" encoding="iso-8859-1"?>
<!-- Generator: Adobe Illustrator 19.0.0, SVG Export Plug-In . SVG Version: 6.00 Build 0)  -->
<svg version="1.1" id="Capa_1" xmlns="http://www.w3.org/2000/svg" xmlns:xlink="http://www.w3.org/1999/xlink" x="0px" y="0px"
	 viewBox="0 0 496 496" style="enable-background:new 0 0 496 496;" xml:space="preserve">
<rect x="64" y="88" style="fill:#AFB8C9;" width="32" height="48"/>
<rect x="64" y="88" style="fill:#8C95A4;" width="32" height="24"/>
<path style="fill:#EABD8C;" d="M440,152H232c-17.672,0-32,14.328-32,32v112h272V184C472,166.328,457.672,152,440,152z"/>
<polygon style="fill:#FB5968;" points="136,88 24,88 48,8 112,8 "/>
<rect x="8" y="136" style="fill:#EABD8C;" width="144" height="160"/>
<g>
	<rect x="40" y="136" style="fill:#ECECEC;" width="80" height="32"/>
	<rect x="40" y="216" style="fill:#ECECEC;" width="80" height="32"/>
</g>
<g>
	<rect x="200" y="432" style="fill:#AFB8C9;" width="32" height="56"/>
	<rect x="440" y="432" style="fill:#AFB8C9;" width="32" height="56"/>
</g>
<g>
	<rect x="200" y="432" style="fill:#8C95A4;" width="32" height="32"/>
	<rect x="440" y="432" style="fill:#8C95A4;" width="32" height="32"/>
</g>
<path style="fill:#FFEAA7;" d="M248,184h176c8.84,0,16,7.16,16,16v48c0,8.84-7.16,16-16,16H248c-8.84,0-16-7.16-16-16v-48
	C232,191.16,239.16,184,248,184z"/>
<rect x="200" y="296" style="fill:#ECECEC;" width="272" height="112"/>
<rect x="200" y="296" style="fill:#B6C1CE;" width="272" height="24"/>
<path style="fill:#EABD8C;" d="M448,392l-7.376-4.216C408.76,369.576,372.696,360,336,360l0,0c-36.696,0-72.76,9.576-104.624,27.784
	L224,392h-40v48h304v-48H448z"/>
<path d="M104,96h42.752l-28.8-96H42.048l-28.8,96H56v32H0v176h160V128h-56V96z M53.952,16h52.096l19.2,64H34.752L53.952,16z M72,96
	h16v32H72V96z M48,144h64v16H48V144z M16,288v-64h16v32h96v-32h16v64H16z M48,224h64v16H48V224z M144,208H16v-64h16v32h96v-32h16
	V208z"/>
<path d="M248,272h176c13.232,0,24-10.768,24-24v-48c0-13.232-10.768-24-24-24H248c-13.232,0-24,10.768-24,24v48
	C224,261.232,234.768,272,248,272z M432,200v48c0,4.408-3.584,8-8,8h-80v-64h80C428.416,192,432,195.592,432,200z M240,200
	c0-4.408,3.584-8,8-8h80v64h-80c-4.416,0-8-3.592-8-8V200z"/>
<path d="M496,384h-16V184c0-22.056-17.944-40-40-40H232c-22.056,0-40,17.944-40,40v200h-16v64h16v48h48v-48h192v48h48v-48h16V384z
	 M232,160h208c13.232,0,24,10.768,24,24v104H208V184C208,170.768,218.768,160,232,160z M208,304h256v80h-13.872l-5.528-3.168
	C411.568,361.968,374.016,352,336,352s-75.568,9.968-108.592,28.832L221.872,384H208V304z M224,480h-16v-32h16V480z M464,480h-16
	v-32h16V480z M480,432H192v-32h34.128l9.216-5.272C265.952,377.24,300.76,368,336,368s70.048,9.24,100.656,26.728l9.216,5.272H480
	V432z"/>
<g>
</g>
<g>
</g>
<g>
</g>
<g>
</g>
<g>
</g>
<g>
</g>
<g>
</g>
<g>
</g>
<g>
</g>
<g>
</g>
<g>
</g>
<g>
</g>
<g>
</g>
<g>
</g>
<g>
</g>
</svg>
