<svg id="Capa_1" enable-background="new 0 0 470.011 470.011" height="512" viewBox="0 0 470.011 470.011" width="512" xmlns="http://www.w3.org/2000/svg"><g><path d="m340.929 52.151 45.541-26.13-14.929-26.021-61 35 8.618 15.022-7.67 24.292 76 24 9.033-28.607z" fill="#007a9e"/><path d="m227.005 252.011c-15.953 0-31.5 1.73-46.479 4.983l54.479 100.017 7-60-7-45z" fill="#ffd298"/><path d="m243.006 252.011h-8v105l53.842-100.156c-14.783-3.164-30.115-4.844-45.842-4.844z" fill="#edba75"/><path d="m180.526 256.994c-98.064 21.298-171.521 108.572-171.521 213.016h226l21-76-21-69z" fill="#00eecf"/><path d="m461.005 470.01c0-104.671-73.774-192.097-172.158-213.156l-53.842 68.156v145z" fill="#00b5bc"/><path d="m104.005 369.011h70v30h-70z" fill="#00c6ce"/><path d="m304.005 351.011h30v53h-30z" fill="#007a9e"/><path d="m276.005 391.011h87v30h-87z" fill="#9dcfff"/><path d="m235.005 97.928-43-8.917-46.966 8.917v64.083c0 10.52 1.811 20.616 5.128 30l41.838 9 43-9 12-46z" fill="#ffe3c1"/><path d="m150.167 192.011c12.352 34.944 45.667 59.985 84.838 59.999l13-30.999-13-29z" fill="#00eecf"/><path d="m235.005 192.011 45 9 39.905-9c3.317-9.384 5.128-19.48 5.128-30v-64.083l-44.034-16.917-46 16.917v94.083z" fill="#ffd298"/><path d="m235.005 252.01c.011 0 .022.001.034.001 39.185 0 72.516-25.046 84.872-60h-84.905v59.999z" fill="#00b5bc"/><path d="m235.005 1.011h-15l-15 5-15-5h-.134c-24.76 0-44.833 20.072-44.833 44.833v52.085h44.966l13-7.917 17 7.917h15l13-45.917z" fill="#00eecf"/><path d="m280.206 1.011h-.201l-16 8-14-8h-15v96.917h15l16-6.917 14 6.917h45.034v-52.084c0-24.761-20.072-44.833-44.833-44.833z" fill="#00b5bc"/><path d="m190.005 1.011h30v96.917h-30z" fill="#00c6ce"/><path d="m250.005 1.011h30v96.917h-30z" fill="#007a9e"/></g></svg>