<svg height="480pt" viewBox="-14 0 480 480.02831" width="480pt" xmlns="http://www.w3.org/2000/svg"><path d="m380.71875 152.027344c-.019531 16.21875-9.816406 30.828125-24.820312 36.996094-15 6.167968-32.238282 2.679687-43.660157-8.835938-6.753906 14.660156-20.441406 24.929688-36.402343 27.316406-15.960938 2.386719-32.054688-3.433594-42.796876-15.476562h-60.320312v-.71875c-2.640625.484375-5.316406.726562-8 .71875-26.511719 0-48-21.488282-48-48 0-26.507813 21.488281-48 48-48 1.066406-.027344 2.136719.027344 3.199219.160156 6.371093-14.652344 20.820312-24.140625 36.800781-24.160156 2.066406-.015625 4.128906.171875 6.160156.5625 8.65625-15.449219 25.117188-24.875 42.820313-24.523438 17.707031.351563 33.78125 10.421875 41.816406 26.203125 12.238281-4.277343 25.785156-2.363281 36.355469 5.140625 10.566406 7.5 16.847656 19.65625 16.847656 32.617188.011719.269531-.015625.539062-.082031.800781 18.660156 3.769531 32.078125 20.164063 32.082031 39.199219zm0 0" fill="#9bc9ff"/><g fill="#1e81ce"><path d="m348.71875 480.027344h-192c-4.417969 0-8-3.582032-8-8v-72h-88c-4.417969 0-8-3.582032-8-8v-88h-44.722656c-2.710938-.003906-5.234375-1.382813-6.703125-3.660156-1.46875-2.277344-1.6875-5.144532-.574219-7.617188l53.832031-119.570312c11.691407-86.414063 78.027344-155.292969 163.941407-170.226563 85.917968-14.933594 171.601562 27.523437 211.769531 104.921875 40.167969 77.402344 25.554687 171.90625-36.113281 233.5625-11.242188 11.253906-23.8125 21.101562-37.429688 29.328125v101.261719c0 4.417968-3.582031 8-8 8zm-184-16h176v-97.839844c-.011719-2.867188 1.515625-5.519531 4-6.953125 13.925781-7.960937 26.726562-17.75 38.0625-29.101563 56.839844-56.8125 70.230469-143.941406 33.078125-215.203124-37.152344-71.257813-116.253906-110.164063-195.375-96.089844-79.121094 14.070312-139.960937 77.863281-150.261719 157.566406-.097656.78125-.3125 1.542969-.640625 2.261719l-49.207031 109.359375h40.34375c4.417969 0 8 3.582031 8 8v88h88c4.417969 0 8 3.582031 8 8zm0 0"/><path d="m377.871094 121.628906c-3.953125-4.804687-8.800782-8.792968-14.273438-11.746094-1.589844-29.675781-26.128906-52.917968-55.847656-52.902343-4.527344.019531-9.039062.582031-13.433594 1.679687-12.015625-13.472656-29.808594-20.304687-47.753906-18.335937-17.949219 1.96875-33.835938 12.496093-42.644531 28.257812-6.3125-.792969-12.722657-.160156-18.761719 1.855469-9.34375 3.238281-17.363281 9.453125-22.832031 17.695312-30.058594 1.769532-53.339844 26.992188-52.695313 57.097657.644532 30.109375 24.980469 54.3125 55.089844 54.796875h64c.242188-.035156.488281-.082032.726562-.144532 21.761719 21.527344 56.796876 21.527344 78.558594 0 .234375.0625.472656.109376.714844.144532h30.480469c23.164062.398437 43.425781-15.519532 48.527343-38.117188 2.941407-14.226562-.675781-29.023437-9.855468-40.28125zm-5.832032 37.113282c-3.578124 15.140624-17.289062 25.695312-32.839843 25.285156h-20c3.621093-7.480469 5.507812-15.6875 5.519531-24 0-4.417969-3.582031-8-8-8s-8 3.582031-8 8c.042969 7.035156-1.828125 13.949218-5.417969 20-7.132812 12.382812-20.339843 20.007812-34.628906 19.992187-14.292969-.015625-27.484375-7.671875-34.585937-20.070312-3.5625-6.03125-5.417969-12.917969-5.367188-19.921875 0-4.417969-3.582031-8-8-8s-8 3.582031-8 8c.019531 8.316406 1.914062 16.519531 5.542969 24h-53.542969c-20.238281.027344-37.292969-15.089844-39.703125-35.183594-2.40625-20.089844 10.59375-38.808594 30.261719-43.566406-1.300782 6.617187-.871094 13.457031 1.238281 19.863281 1.453125 4.128906 5.957031 6.328125 10.105469 4.925781 4.148437-1.398437 6.402344-5.871094 5.054687-10.039062-3.527343-14.550782 4.527344-29.410156 18.640625-34.398438 2.472656-.789062 5.046875-1.199218 7.640625-1.214844-.8125 3.816407-1.230469 7.710938-1.238281 11.613282 0 4.417968 3.582031 8 8 8s8-3.582032 8-8c.015625-2.496094.269531-4.988282.75-7.4375 5.246094 3.066406 9.246094 7.878906 11.304688 13.597656 1.414062 4.1875 5.953124 6.433594 10.140624 5.019531 4.1875-1.414062 6.433594-5.953125 5.019532-10.140625-3.515625-10.140625-10.769532-18.558594-20.28125-23.535156 6.292968-9.371094 16.285156-15.617188 27.46875-17.160156 11.183594-1.546875 22.492187 1.75 31.09375 9.066406-3.648438 2.25-7.027344 4.914062-10.066406 7.933594-2.078126 2.011718-2.914063 4.984375-2.179688 7.78125.730469 2.796875 2.914062 4.980468 5.710938 5.714844 2.796874.730468 5.773437-.101563 7.78125-2.183594 2.648437-2.566406 5.636718-4.753906 8.878906-6.503906 2.839844 5.523437 4.339844 11.636718 4.378906 17.847656 0 4.417968 3.582031 8 8 8s8-3.582032 8-8c.003906-7.804688-1.632812-15.523438-4.800781-22.65625 1.289062-.117188 2.550781-.375 3.863281-.375 18.792969-.019532 35.046875 13.082031 39.015625 31.449218-2.015625-.269531-4.046875-.410156-6.078125-.417968-4.417969 0-8 3.582031-8 8 0 4.417968 3.582031 8 8 8 2.105469.027344 4.207031.257812 6.269531.695312-1.511719 7.796875-5.332031 14.960938-10.957031 20.5625-2.082031 2.007813-2.914062 4.980469-2.183594 7.777344.730469 2.800781 2.917969 4.984375 5.714844 5.714844 2.796875.734375 5.769531-.101563 7.777344-2.179688 6.824218-6.8125 11.757812-15.277344 14.320312-24.570312 1.378906 1.140625 2.660156 2.394531 3.832032 3.746094 6.191406 7.523437 8.601562 17.460937 6.546874 26.984374zm0 0"/><path d="m286.683594 160.828125c-3.828125-2.207031-8.71875-.894531-10.925782 2.9375-1.40625 2.585937-4.097656 4.214844-7.039062 4.261719-2.84375-.011719-5.46875-1.535156-6.890625-4-.746094-1.199219-1.132813-2.585938-1.109375-4 0-4.417969-3.582031-8-8-8s-8 3.582031-8 8c-.027344 4.226562 1.109375 8.375 3.277344 12 4.308594 7.453125 12.285156 12.019531 20.890625 11.953125 8.609375-.0625 16.515625-4.746094 20.710937-12.265625 2.183594-3.8125.882813-8.671875-2.914062-10.886719zm0 0"/><path d="m284.71875 112.027344c-4.417969 0-8 3.582031-8 8 0 4.417968 3.582031 8 8 8s8 3.582031 8 8c0 4.417968 3.582031 8 8 8s8-3.582032 8-8c0-13.253906-10.746094-24-24-24zm0 0"/><path d="m164.71875 152.027344c-4.417969 0-8-3.582032-8-8 0-4.417969-3.582031-8-8-8s-8 3.582031-8 8c0 13.253906 10.742188 24 24 24 4.417969 0 8-3.582032 8-8 0-4.417969-3.582031-8-8-8zm0 0"/><path d="m204.71875 112.027344c-4.417969 0-8 3.582031-8 8 0 4.417968 3.582031 8 8 8s8 3.582031 8 8c0 4.417968 3.582031 8 8 8s8-3.582032 8-8c0-13.253906-10.746094-24-24-24zm0 0"/></g></svg>